<svg width="85" height="63" viewBox="0 0 85 63" fill="none" xmlns="http://www.w3.org/2000/svg">
<path d="M48.4 7.05506C51.8639 8.12634 54.985 10.0901 57.45 12.7491C60.1165 15.5943 61.9084 19.1466 62.612 22.9821C62.9541 25.4852 63.0606 28.015 62.93 30.5381C62.93 32.2381 62.875 33.9211 62.999 35.5381C63.1255 38.0031 63.8371 40.4026 65.075 42.5381C66.4735 44.7283 68.3403 46.5811 70.541 47.9631C71.1652 48.3699 71.6162 48.9938 71.807 49.7141C71.9658 50.2696 71.9658 50.8585 71.807 51.4141C71.637 51.9705 71.319 52.4703 70.887 52.8601C70.3236 53.3509 69.6002 53.6191 68.853 53.6141H52.466C52.1359 56.0268 50.9429 58.2383 49.108 59.8393C47.273 61.4403 44.9202 62.3224 42.485 62.3224C40.0498 62.3224 37.697 61.4403 35.862 59.8393C34.0271 58.2383 32.8341 56.0268 32.504 53.6141H16.122C15.339 53.6213 14.5833 53.3266 14.012 52.7911C13.5998 52.3987 13.3017 51.9019 13.1494 51.3535C12.9971 50.8052 12.9962 50.2258 13.147 49.6771C13.3511 48.9339 13.8344 48.2984 14.496 47.9031C16.9147 46.3852 18.9113 44.2816 20.301 41.7871C21.5563 39.2058 22.1576 36.3554 22.052 33.4871V31.1541C21.912 28.4155 22.0325 25.6698 22.412 22.9541C23.1013 19.2415 24.7999 15.7905 27.3214 12.9798C29.8429 10.169 33.0898 8.10702 36.706 7.02006C37.2115 5.92481 38.0394 5.01002 39.079 4.39806C40.1308 3.79079 41.324 3.47109 42.5385 3.47109C43.753 3.47109 44.9462 3.79079 45.998 4.39806C47.0518 5.01631 47.8898 5.94399 48.398 7.05506H48.4ZM12.22 3.10306C12.1074 3.26972 11.9613 3.41107 11.791 3.51806C10.7926 4.15732 9.84629 4.87456 8.96099 5.66306C8.1153 6.41182 7.33513 7.23147 6.62899 8.11306C5.96187 8.96321 5.37187 9.87114 4.86599 10.8261C4.38134 11.7595 3.98752 12.7373 3.68999 13.7461C3.39362 14.7575 3.19898 15.796 3.10899 16.8461C3.0054 17.9206 3.0054 19.0026 3.10899 20.0771C3.22212 21.2072 3.43291 22.3253 3.73899 23.4191C4.06135 24.574 4.47155 25.7026 4.96599 26.7951C5.05153 26.9772 5.09851 27.175 5.10399 27.3761C5.11035 27.5768 5.07635 27.7767 5.00399 27.9641C4.93731 28.1418 4.83868 28.3058 4.71299 28.4481C4.59284 28.5807 4.44992 28.6908 4.29099 28.7731C4.24309 28.8017 4.1921 28.8249 4.13899 28.8421C3.96609 28.9158 3.77997 28.9536 3.59199 28.9531C3.40041 28.9589 3.20972 28.9248 3.03199 28.8531C2.85377 28.7874 2.68956 28.6887 2.54799 28.5621C2.41101 28.4344 2.29642 28.2846 2.20899 28.1191L2.16099 28.0191C1.60349 26.7719 1.14247 25.4838 0.781991 24.1661C0.44127 22.9107 0.209741 21.6283 0.0899911 20.3331C-0.031055 19.072 -0.031055 17.8022 0.0899911 16.5411C0.20417 15.3065 0.435886 14.0856 0.781991 12.8951C1.12841 11.699 1.59199 10.5401 2.16599 9.43506C2.74095 8.30784 3.41954 7.23655 4.19299 6.23506C5.00664 5.2149 5.90736 4.26734 6.88499 3.40306C7.89321 2.50426 8.97127 1.68702 10.109 0.959062C10.2854 0.833724 10.486 0.746536 10.698 0.703062C10.886 0.671896 11.0779 0.671896 11.266 0.703062C11.4592 0.746493 11.6425 0.82624 11.806 0.938062C11.9727 1.05064 12.114 1.19676 12.221 1.36706C12.3301 1.53701 12.403 1.72765 12.435 1.92706C12.4737 2.12519 12.4737 2.32894 12.435 2.52706C12.3891 2.72071 12.307 2.90393 12.193 3.06706L12.22 3.10306ZM20.239 9.93306C19.5139 10.3798 18.8212 10.877 18.166 11.4211C17.5762 11.9129 17.0299 12.4546 16.533 13.0401C16.0762 13.5849 15.6743 14.1734 15.333 14.7971C14.9805 15.3975 14.6996 16.0372 14.496 16.7031C14.3174 17.3514 14.2107 18.0174 14.178 18.6891C14.1431 19.3986 14.1766 20.1099 14.278 20.8131C14.3911 21.5838 14.5717 22.343 14.818 23.0821C15.0855 23.8998 15.4162 24.6955 15.807 25.4621C15.8944 25.6442 15.946 25.8415 15.959 26.0431C15.9745 26.2348 15.951 26.4277 15.89 26.6101C15.8298 26.7926 15.7358 26.9622 15.613 27.1101C15.4883 27.2559 15.3382 27.3779 15.17 27.4701H15.126C14.946 27.5566 14.7512 27.6082 14.552 27.6221C14.358 27.6372 14.1629 27.6137 13.978 27.5531C13.7955 27.4928 13.6259 27.3989 13.478 27.2761C13.3285 27.155 13.2059 27.0041 13.118 26.8331V26.7851C12.6522 25.8591 12.2567 24.8994 11.935 23.9141C11.6359 23.0127 11.4184 22.0863 11.285 21.1461C11.1558 20.2458 11.1186 19.3348 11.174 18.4271C11.2254 17.5467 11.3739 16.6748 11.617 15.8271C11.8576 14.9798 12.1892 14.161 12.606 13.3851C13.0376 12.5809 13.5503 11.823 14.136 11.1231C14.7489 10.3877 15.4248 9.70708 16.156 9.08906C16.9429 8.43358 17.7753 7.83474 18.647 7.29706C18.8172 7.18969 19.0079 7.11886 19.207 7.08906C19.4047 7.04669 19.6092 7.04669 19.807 7.08906C19.9927 7.13189 20.1688 7.20923 20.326 7.31706C20.4821 7.42351 20.6159 7.55938 20.72 7.71706L20.775 7.80706C20.8743 7.97565 20.9392 8.16224 20.966 8.35606C21.0233 8.64869 20.9927 8.95173 20.8781 9.22701C20.7635 9.5023 20.57 9.73752 20.322 9.90306L20.274 9.93806L20.239 9.93306ZM73.166 3.51906C72.9957 3.41207 72.8496 3.27072 72.737 3.10406C72.623 2.94093 72.5409 2.75771 72.495 2.56406C72.4563 2.36594 72.4563 2.16219 72.495 1.96406C72.527 1.76465 72.5999 1.57401 72.709 1.40406C72.816 1.23376 72.9573 1.08764 73.124 0.975062C73.2885 0.864773 73.4724 0.786724 73.666 0.745062C73.8537 0.714006 74.0453 0.714006 74.233 0.745062C74.4323 0.781595 74.6225 0.856665 74.793 0.966062C75.9331 1.69308 77.0135 2.50966 78.024 3.40806C79.0182 4.26961 79.935 5.21656 80.764 6.23806C81.5518 7.2301 82.2454 8.29336 82.836 9.41406C83.41 10.5191 83.8736 11.678 84.22 12.8741C84.5661 14.0646 84.7978 15.2855 84.912 16.5201C85.0295 17.7813 85.0295 19.0508 84.912 20.3121C84.7922 21.6073 84.5607 22.8897 84.22 24.1451C83.8581 25.4646 83.3954 26.7544 82.836 28.0031L82.788 28.1031C82.7006 28.2686 82.586 28.4184 82.449 28.5461C82.3074 28.6727 82.1432 28.7714 81.965 28.8371C81.6089 28.9753 81.214 28.9753 80.858 28.8371L80.706 28.7681C80.547 28.6859 80.4041 28.5758 80.284 28.4431C80.1583 28.3008 80.0597 28.1368 79.993 27.9591C79.9206 27.7717 79.8866 27.5718 79.893 27.3711C79.8985 27.17 79.9454 26.9722 80.031 26.7901C80.5283 25.6969 80.9412 24.5673 81.266 23.4111C81.5721 22.3173 81.7829 21.1992 81.896 20.0691C81.9996 18.9946 81.9996 17.9126 81.896 16.8381C81.806 15.788 81.6114 14.7495 81.315 13.7381C81.0175 12.7293 80.6236 11.7515 80.139 10.8181C79.6323 9.86072 79.0388 8.95191 78.366 8.10306C77.6642 7.22024 76.8862 6.40076 76.041 5.65406C75.1512 4.86496 74.2002 4.14771 73.197 3.50906L73.166 3.51906ZM64.742 9.94706L64.666 9.90306C64.4269 9.74266 64.2382 9.51768 64.1219 9.25426C64.0056 8.99085 63.9664 8.69984 64.009 8.41506C64.0369 8.22172 64.1029 8.03582 64.203 7.86806L64.258 7.77806C64.3621 7.62038 64.4959 7.48451 64.652 7.37806C64.8968 7.20925 65.1855 7.11538 65.4827 7.10792C65.78 7.10046 66.073 7.17973 66.326 7.33606C67.1977 7.87374 68.0301 8.47258 68.817 9.12806C69.5481 9.74608 70.224 10.4267 70.837 11.1621C71.4221 11.8608 71.9344 12.6174 72.366 13.4201C72.7828 14.196 73.1143 15.0148 73.355 15.8621C73.5947 16.7105 73.7432 17.5821 73.798 18.4621C73.8534 19.3698 73.8162 20.2808 73.687 21.1811C73.5536 22.1213 73.3361 23.0477 73.037 23.9491C72.7152 24.9344 72.3198 25.8941 71.854 26.8201V26.8681C71.7661 27.0391 71.6435 27.19 71.494 27.3111C71.3461 27.4339 71.1765 27.5278 70.994 27.5881C70.8091 27.6487 70.614 27.6722 70.42 27.6571C70.2208 27.6432 70.026 27.5916 69.846 27.5051H69.798C69.6298 27.4129 69.4797 27.2909 69.355 27.1451C69.2322 26.9972 69.1382 26.8276 69.078 26.6451C69.017 26.4627 68.9935 26.2698 69.009 26.0781C69.0226 25.8779 69.0759 25.6824 69.166 25.5031C69.5558 24.7337 69.8864 23.9357 70.155 23.1161C70.4012 22.377 70.5819 21.6178 70.695 20.8471C70.7964 20.1439 70.8299 19.4326 70.795 18.7231C70.7564 18.0459 70.6427 17.3751 70.456 16.7231C70.272 16.0709 70.0144 15.4419 69.688 14.8481C69.3407 14.2176 68.9313 13.6233 68.466 13.0741C67.9691 12.4886 67.4227 11.9469 66.833 11.4551C66.1765 10.9112 65.4824 10.4143 64.756 9.96806L64.742 9.94706ZM55.056 14.9701C52.8186 12.5511 49.9403 10.8172 46.756 9.97006C46.4885 9.89316 46.2451 9.74916 46.0489 9.55174C45.8527 9.35432 45.7102 9.11003 45.635 8.84206C45.4385 8.1508 44.981 7.56304 44.359 7.20306C43.8105 6.89139 43.1898 6.72932 42.559 6.73306C41.9377 6.72591 41.326 6.88619 40.788 7.19706C40.179 7.56163 39.7333 8.14623 39.543 8.83006C39.464 9.10708 39.3129 9.35814 39.105 9.55757C38.8971 9.75699 38.64 9.89762 38.36 9.96506C35.1538 10.7686 32.2449 12.4738 29.9776 14.8788C27.7102 17.2839 26.1793 20.2881 25.566 23.5361C25.2321 26.0584 25.1317 28.6062 25.266 31.1471C25.266 32.1471 25.266 33.1191 25.266 33.5271C25.3729 36.9156 24.6434 40.2784 23.142 43.3181C21.587 46.1631 19.3587 48.584 16.652 50.3691H68.282C65.8762 48.774 63.8382 46.6842 62.304 44.2391C60.7974 41.6653 59.9269 38.769 59.765 35.7911C59.634 34.1231 59.665 32.3311 59.696 30.5051C59.8079 28.1944 59.7075 25.8784 59.396 23.5861C58.802 20.3729 57.2993 17.3973 55.066 15.0121L55.056 14.9701Z" fill="black"/>
</svg>
