<svg width="26" height="21" viewBox="0 0 26 21" fill="none" xmlns="http://www.w3.org/2000/svg">
<path d="M8.28302 0.602272C9.39163 0.627883 10.4864 0.854565 11.514 1.27128C11.964 1.42328 12.414 1.57127 12.881 1.68427C13.2372 1.76414 13.6088 1.74055 13.952 1.61627C14.552 1.42327 15.152 1.22927 15.752 1.03127C16.7967 0.656212 17.9026 0.480836 19.012 0.514275C19.9934 0.53065 20.9617 0.741879 21.8607 1.13569C22.7598 1.5295 23.5716 2.09804 24.249 2.80827C24.486 3.05927 24.468 3.08528 24.172 3.26828C23.1751 3.78816 22.3644 4.60517 21.8524 5.60617C21.3403 6.60717 21.1522 7.74261 21.314 8.85527C21.4459 9.86784 21.8526 10.825 22.4898 11.6228C23.1271 12.4207 23.9707 13.0288 24.929 13.3813C25.201 13.5013 25.254 13.6113 25.154 13.8573C24.4422 15.5741 23.4258 17.1481 22.154 18.5033C21.7721 18.9303 21.3542 19.3237 20.905 19.6793C20.4083 20.0502 19.8328 20.3015 19.2232 20.4139C18.6136 20.5263 17.9863 20.4967 17.39 20.3273C16.721 20.1703 16.1 19.9043 15.443 19.7103C14.2071 19.3682 12.899 19.388 11.674 19.7673C11.017 19.9553 10.396 20.2113 9.72702 20.3733C9.14529 20.536 8.53214 20.551 7.94315 20.4169C7.35416 20.2828 6.80794 20.0038 6.35402 19.6053C4.77525 18.2907 3.48931 16.66 2.57902 14.8183C1.91027 13.5221 1.43586 12.1346 1.17102 10.7003C0.787537 8.95371 0.879392 7.13627 1.43702 5.43727C1.92276 3.99535 2.86584 2.75136 4.12302 1.89427C5.34033 1.03891 6.79532 0.587024 8.28302 0.602272Z" fill="#1C1B19"/>
</svg>
