<svg width="46" height="46" viewBox="0 0 46 46" fill="none" xmlns="http://www.w3.org/2000/svg">
<path d="M23.025 0.505859C16.907 0.505859 16.137 0.531859 13.736 0.641859C11.8682 0.679765 10.0203 1.03412 8.271 1.68986C6.767 2.25342 5.40546 3.14108 4.283 4.28986C3.13791 5.41535 2.25081 6.77602 1.683 8.27786C1.02661 10.0266 0.672557 11.8743 0.636 13.7419C0.529 16.1429 0.5 16.9059 0.5 23.0269C0.5 29.1479 0.526 29.9069 0.636 32.3119C0.673886 34.1797 1.02824 36.0275 1.684 37.7769C2.25035 39.2794 3.13764 40.6404 4.284 41.7649C5.40851 42.9111 6.76946 43.7984 8.272 44.3649C10.0229 45.0194 11.8721 45.3727 13.741 45.4099C16.141 45.5199 16.908 45.5459 23.026 45.5459C29.144 45.5459 29.906 45.5199 32.311 45.4099C34.1799 45.3727 36.0291 45.0194 37.78 44.3649C39.2784 43.7839 40.6393 42.8969 41.7757 41.7605C42.9121 40.6241 43.799 39.2633 44.38 37.7649C45.0295 36.0161 45.3817 34.1709 45.422 32.3059C45.528 29.9059 45.558 29.1389 45.558 23.0209C45.558 16.9029 45.529 16.1369 45.422 13.7359C45.3806 11.8668 45.0264 10.0179 44.374 8.26586C43.8078 6.76317 42.9205 5.40216 41.774 4.27786C40.6522 3.12827 39.2905 2.24048 37.786 1.67786C36.0292 1.0243 34.1741 0.673977 32.3 0.641859C29.9 0.531859 29.136 0.505859 23.018 0.505859H23.025ZM21 4.56386H23.023C29.035 4.56386 29.746 4.58586 32.123 4.69586C33.551 4.71202 34.9656 4.9735 36.305 5.46886C37.283 5.83008 38.1674 6.40625 38.893 7.15486C39.6405 7.88162 40.2167 8.76567 40.58 9.74286C41.0754 11.0823 41.3368 12.4969 41.353 13.9249C41.463 16.2969 41.485 17.0109 41.485 23.0249C41.485 29.0389 41.463 29.7479 41.353 32.1249C41.3373 33.5519 41.0758 34.9656 40.58 36.3039C40.2048 37.2743 39.6307 38.1555 38.8946 38.8909C38.1585 39.6263 37.2768 40.1995 36.306 40.5739C34.9675 41.0732 33.5525 41.3361 32.124 41.3509C29.752 41.4609 29.038 41.4829 23.024 41.4829C17.01 41.4829 16.298 41.4609 13.924 41.3509C12.4958 41.3334 11.0812 41.0706 9.742 40.5739C8.76287 40.214 7.87707 39.6389 7.15 38.8909C6.40248 38.1649 5.82735 37.2806 5.467 36.3029C4.97027 34.9637 4.70745 33.5491 4.69 32.1209C4.584 29.7459 4.562 29.0349 4.562 23.0209C4.562 17.0069 4.584 16.2979 4.69 13.9209C4.7049 12.4914 4.9678 11.0754 5.467 9.73586C5.82706 8.75826 6.40184 7.87388 7.149 7.14786C7.87671 6.39991 8.76226 5.82389 9.741 5.46186C11.0806 4.96668 12.4949 4.7039 13.923 4.68486C16 4.59286 16.8 4.56386 21 4.55986V4.56386ZM35.045 8.30586C34.4205 8.30693 33.8157 8.52445 33.3335 8.92138C32.8514 9.31832 32.5218 9.87011 32.4008 10.4828C32.2798 11.0955 32.3749 11.7311 32.67 12.2816C32.9651 12.832 33.4418 13.2631 34.019 13.5014C34.5963 13.7398 35.2383 13.7707 35.8357 13.5889C36.4332 13.4071 36.9491 13.0237 37.2957 12.5042C37.6423 11.9847 37.798 11.3611 37.7365 10.7396C37.6749 10.1182 37.3998 9.53727 36.958 9.09586C36.4503 8.58934 35.7622 8.30518 35.045 8.30586ZM23.025 11.4659C20.7375 11.4659 18.5014 12.1442 16.5994 13.4152C14.6975 14.6861 13.2152 16.4926 12.34 18.6061C11.4647 20.7195 11.2359 23.0451 11.6825 25.2886C12.1291 27.5321 13.2309 29.5927 14.8487 31.21C16.4665 32.8272 18.5276 33.9283 20.7712 34.3741C23.0149 34.8199 25.3403 34.5903 27.4535 33.7144C29.5667 32.8384 31.3726 31.3555 32.6429 29.4531C33.9132 27.5507 34.5908 25.3144 34.59 23.0269C34.59 21.5081 34.2909 20.0043 33.7097 18.6011C33.1285 17.198 32.2766 15.9231 31.2027 14.8492C30.1288 13.7753 28.8539 12.9234 27.4507 12.3422C26.0476 11.761 24.5437 11.4619 23.025 11.4619V11.4659ZM23.025 15.5239C23.023 13.5354 22.2314 11.6291 20.8243 10.2241C19.4172 8.81907 17.5097 8.03037 15.5213 8.03136C13.5328 8.03235 11.6261 8.82297 10.2204 10.2294C8.81466 11.6358 8.025 13.5429 8.025 15.5314C8.025 17.5198 8.81466 19.4269 10.2204 20.8333C11.6261 22.2397 13.5328 23.0304 15.5213 23.0314C17.5097 23.0324 19.4172 22.2436 20.8243 20.8386C22.2314 19.4336 23.023 17.5273 23.025 15.5389V15.5239Z" fill="white"/>
</svg>
