<svg width="45" height="45" viewBox="0 0 45 45" fill="none" xmlns="http://www.w3.org/2000/svg">
<path fill-rule="evenodd" clip-rule="evenodd" d="M40.372 0H4.177C3.07025 0.00342855 2.0098 0.444605 1.2272 1.2272C0.444605 2.0098 0.00342855 3.07025 0 4.177V40.372C0.00342855 41.4788 0.444605 42.5392 1.2272 43.3218C2.0098 44.1044 3.07025 44.5456 4.177 44.549H40.372C41.4788 44.5456 42.5392 44.1044 43.3218 43.3218C44.1044 42.5392 44.5456 41.4788 44.549 40.372V4.177C44.5456 3.07025 44.1044 2.0098 43.3218 1.2272C42.5392 0.444605 41.4788 0.00342855 40.372 0ZM25.325 12.1H30.413V5.992H25.325C23.4371 5.9957 21.6276 6.74758 20.2931 8.0829C18.9585 9.41822 18.2076 11.2281 18.205 13.116V16.168H14.134V22.276H18.204V38.557H24.313V22.275H29.399L30.413 16.167H24.313V13.112C24.3161 12.8436 24.4238 12.5869 24.6131 12.3966C24.8025 12.2063 25.0586 12.0974 25.327 12.093L25.325 12.1Z" fill="white"/>
</svg>
