<svg width="60" height="59" viewBox="0 0 60 59" fill="none" xmlns="http://www.w3.org/2000/svg">
<path d="M39.354 2.29906C39.4351 1.63769 39.7716 1.03425 40.2916 0.617592C40.8116 0.200932 41.4739 0.00407675 42.137 0.069063C42.8001 0.00407675 43.4624 0.200932 43.9824 0.617592C44.5024 1.03425 44.8389 1.63769 44.92 2.29906V12.0691C44.8389 12.7304 44.5024 13.3339 43.9824 13.7505C43.4624 14.1672 42.8001 14.364 42.137 14.2991C41.4739 14.364 40.8116 14.1672 40.2916 13.7505C39.7716 13.3339 39.4351 12.7304 39.354 12.0691V2.29906ZM14.15 48.8211V44.6211L20.598 38.1811C20.9628 37.8285 21.3074 37.4556 21.63 37.0641C21.8851 36.7529 22.1051 36.4145 22.286 36.0551C22.4424 35.7398 22.5248 35.393 22.527 35.0411C22.5405 34.7117 22.4618 34.3852 22.3 34.0981C22.1421 33.8448 21.8993 33.6559 21.615 33.5651C21.2317 33.4441 20.8308 33.3883 20.429 33.4001H14.468V29.2001C15.38 29.0001 16.397 28.8131 17.521 28.6391C18.8212 28.4537 20.1337 28.3671 21.447 28.3801C22.7649 28.3227 24.0799 28.5459 25.305 29.0351C26.1872 29.4173 26.9014 30.1056 27.316 30.9731C27.7436 31.9631 27.9484 33.0351 27.916 34.1131C27.926 34.9365 27.8037 35.7563 27.554 36.5411C27.3175 37.2712 26.9712 37.9611 26.527 38.5871C26.03 39.27 25.475 39.9087 24.868 40.4961L21.293 44.0691H28.5V48.8161L14.15 48.8211ZM36.205 48.9861C35.5037 48.9877 34.8034 48.9295 34.112 48.8121C33.458 48.7097 32.8285 48.4877 32.255 48.1571C31.6948 47.8168 31.2405 47.3271 30.943 46.7431C30.5873 45.9881 30.4219 45.1576 30.461 44.3241V41.6171C30.4636 41.1743 30.531 40.7343 30.661 40.3111C30.7873 39.878 31.006 39.4775 31.302 39.1371C31.6229 38.7765 32.0564 38.5354 32.532 38.4531C32.06 38.2335 31.6528 37.8956 31.35 37.4721C31.1165 37.1123 30.9773 36.6997 30.945 36.2721C30.906 35.8341 30.887 35.3811 30.887 34.9101V32.5991C30.8251 31.7651 31.046 30.9347 31.5141 30.2417C31.9822 29.5488 32.6702 29.0339 33.467 28.7801C34.2623 28.5033 35.099 28.3647 35.941 28.3701H39.9C40.7455 28.3621 41.5859 28.5008 42.384 28.7801C43.1788 29.0337 43.864 29.5496 44.3274 30.2434C44.7909 30.9372 45.0051 31.7677 44.935 32.5991V34.9091C44.9317 35.1645 44.914 35.4196 44.882 35.6731C44.8399 36.0206 44.7638 36.3633 44.655 36.6961C44.5601 37.0314 44.3959 37.3431 44.173 37.6111C43.9412 37.8693 43.6249 38.0363 43.281 38.0821C43.5629 38.1283 43.8328 38.2306 44.0746 38.3827C44.3164 38.5349 44.5253 38.7339 44.689 38.9681C44.9714 39.3955 45.1617 39.8771 45.248 40.3821C45.3233 40.796 45.3651 41.2154 45.373 41.6361V44.3361C45.4486 45.3872 45.185 46.4348 44.621 47.3251C44.1199 47.9714 43.4151 48.4295 42.621 48.6251C41.756 48.8572 40.8636 48.9712 39.968 48.9641L36.205 48.9861ZM37.17 44.5121H38.617C39.234 44.5121 39.606 44.3991 39.736 44.1731C39.8776 43.8896 39.9441 43.5746 39.929 43.2581V41.9761C39.9396 41.6526 39.8331 41.3362 39.629 41.0851C39.5097 40.9586 39.3639 40.8601 39.2021 40.7964C39.0403 40.7328 38.8665 40.7057 38.693 40.7171H37.183C36.9841 40.7112 36.786 40.7431 36.599 40.8111C36.436 40.863 36.2897 40.9572 36.175 41.0841C36.0693 41.2041 35.9875 41.3433 35.934 41.4941C35.8789 41.655 35.8512 41.824 35.852 41.9941V43.2761C35.8396 43.449 35.8618 43.6227 35.9172 43.7871C35.9727 43.9514 36.0603 44.103 36.175 44.2331C36.469 44.4467 36.8316 44.5439 37.193 44.5061L37.17 44.5121ZM37.17 36.2121H38.617C38.8635 36.2342 39.1111 36.1845 39.33 36.0691C39.4756 35.9519 39.5705 35.7833 39.595 35.5981C39.6332 35.3278 39.6509 35.055 39.648 34.7821V33.9331C39.648 33.4051 39.542 33.0991 39.33 32.9901C39.1034 32.8976 38.8607 32.8511 38.616 32.8531H37.169C36.9048 32.8392 36.6413 32.8911 36.402 33.0041C36.224 33.1041 36.137 33.4091 36.137 33.9191V34.7691C36.0796 35.188 36.1626 35.6142 36.373 35.9811C36.5999 36.1583 36.8865 36.2411 37.173 36.2121H37.17ZM14.28 2.29906C14.3611 1.63769 14.6976 1.03425 15.2176 0.617592C15.7376 0.200932 16.3999 0.00407675 17.063 0.069063C17.7261 0.00407675 18.3884 0.200932 18.9084 0.617592C19.4284 1.03425 19.7649 1.63769 19.846 2.29906V12.0691C19.7649 12.7304 19.4284 13.3339 18.9084 13.7505C18.3884 14.1672 17.7261 14.364 17.063 14.2991C16.3999 14.364 15.7376 14.1672 15.2176 13.7505C14.6976 13.3339 14.3611 12.7304 14.28 12.0691V2.29906ZM3.087 18.3421H56.167V10.1911C56.162 9.82389 56.013 9.47338 55.752 9.21506C55.4846 8.95422 55.1255 8.80878 54.752 8.81006H49.675C49.4736 8.81525 49.2733 8.78006 49.0857 8.70659C48.8982 8.63311 48.7272 8.52282 48.583 8.38223C48.4387 8.24164 48.3241 8.07359 48.2458 7.88799C48.1675 7.70239 48.1272 7.503 48.1272 7.30156C48.1272 7.10013 48.1675 6.90073 48.2458 6.71513C48.3241 6.52953 48.4387 6.36148 48.583 6.22089C48.7272 6.0803 48.8982 5.97002 49.0857 5.89654C49.2733 5.82306 49.4736 5.78788 49.675 5.79306H54.763C55.9421 5.78343 57.0772 6.24074 57.9203 7.06512C58.7634 7.88951 59.2461 9.014 59.263 10.1931V53.6031C59.2461 54.7821 58.7634 55.9066 57.9203 56.731C57.0772 57.5554 55.9421 58.0127 54.763 58.0031H4.5C3.32086 58.0127 2.1858 57.5554 1.34268 56.731C0.49956 55.9066 0.0168665 54.7821 0 53.6031L0 10.1911C0.0168665 9.012 0.49956 7.88751 1.34268 7.06312C2.1858 6.23874 3.32086 5.78143 4.5 5.79106H9.935C10.1364 5.78588 10.3367 5.82106 10.5243 5.89454C10.7118 5.96802 10.8828 6.0783 11.027 6.21889C11.1713 6.35948 11.2859 6.52753 11.3642 6.71313C11.4425 6.89873 11.4828 7.09813 11.4828 7.29956C11.4828 7.501 11.4425 7.70039 11.3642 7.88599C11.2859 8.07159 11.1713 8.23964 11.027 8.38023C10.8828 8.52082 10.7118 8.63111 10.5243 8.70459C10.3367 8.77806 10.1364 8.81325 9.935 8.80806H4.5C4.12726 8.81084 3.76962 8.95568 3.5 9.21306C3.36903 9.33969 3.26481 9.49132 3.19352 9.65898C3.12223 9.82663 3.08533 10.0069 3.085 10.1891L3.087 18.3421ZM56.171 21.3691H3.087V53.5971C3.0925 53.9626 3.24072 54.3114 3.5 54.5691C3.76737 54.8299 4.12647 54.9753 4.5 54.9741H54.758C55.1307 54.9713 55.4884 54.8264 55.758 54.5691C55.889 54.4424 55.9932 54.2908 56.0645 54.1231C56.1358 53.9555 56.1727 53.7752 56.173 53.5931L56.171 21.3691ZM24.341 8.81006C24.1396 8.81525 23.9393 8.78006 23.7517 8.70659C23.5642 8.63311 23.3932 8.52282 23.249 8.38223C23.1047 8.24164 22.99 8.07359 22.9118 7.88799C22.8335 7.70239 22.7932 7.503 22.7932 7.30156C22.7932 7.10013 22.8335 6.90073 22.9118 6.71513C22.99 6.52953 23.1047 6.36148 23.249 6.22089C23.3932 6.0803 23.5642 5.97002 23.7517 5.89654C23.9393 5.82306 24.1396 5.78788 24.341 5.79306H34.681C34.8824 5.78788 35.0827 5.82306 35.2703 5.89654C35.4578 5.97002 35.6288 6.0803 35.773 6.22089C35.9173 6.36148 36.032 6.52953 36.1102 6.71513C36.1885 6.90073 36.2288 7.10013 36.2288 7.30156C36.2288 7.503 36.1885 7.70239 36.1102 7.88799C36.032 8.07359 35.9173 8.24164 35.773 8.38223C35.6288 8.52282 35.4578 8.63311 35.2703 8.70659C35.0827 8.78006 34.8824 8.81525 34.681 8.81006H24.341Z" fill="#1C1B19"/>
</svg>
