<svg width="26" height="32" viewBox="0 0 26 32" fill="none" xmlns="http://www.w3.org/2000/svg">
<path d="M7.218 0.0272282C7.13318 0.0363212 7.05131 0.0636087 6.978 0.107228C6.83865 0.206303 6.74379 0.356152 6.71386 0.524493C6.68394 0.692834 6.72133 0.866195 6.818 1.00723L8.198 3.06723C7.1555 3.58812 6.23733 4.32732 5.50589 5.23459C4.77445 6.14186 4.24687 7.19595 3.959 8.32523H21.635C21.3477 7.19613 20.8208 6.14208 20.0901 5.23465C19.3593 4.32723 18.4419 3.58768 17.4 3.06623L18.776 1.01123C18.8727 0.870195 18.9101 0.696834 18.8801 0.528493C18.8502 0.360152 18.7554 0.210303 18.616 0.111228C18.4722 0.017579 18.2975 -0.0160234 18.1293 0.0176243C17.961 0.051272 17.8127 0.149492 17.716 0.291228L16.2 2.52723C14.004 1.72703 11.596 1.72703 9.4 2.52723L7.878 0.287228C7.80562 0.183935 7.70445 0.104211 7.5871 0.0579807C7.46974 0.0117506 7.34139 0.00105604 7.218 0.0272282ZM9.278 5.12723C9.46787 5.12723 9.65348 5.18353 9.81135 5.28902C9.96922 5.3945 10.0923 5.54444 10.1649 5.71985C10.2376 5.89527 10.2566 6.08829 10.2196 6.27451C10.1825 6.46074 10.0911 6.63179 9.95682 6.76605C9.82256 6.90031 9.65151 6.99174 9.46529 7.02878C9.27906 7.06582 9.08604 7.04681 8.91062 6.97415C8.73521 6.90149 8.58527 6.77845 8.47979 6.62058C8.3743 6.4627 8.318 6.2771 8.318 6.08723C8.31787 5.96108 8.3426 5.83613 8.39079 5.71954C8.43897 5.60296 8.50967 5.49701 8.59882 5.40776C8.68798 5.31851 8.79385 5.24771 8.91039 5.1994C9.02693 5.15109 9.15185 5.12623 9.278 5.12623V5.12723ZM16.316 5.12723C16.5059 5.12723 16.6915 5.18353 16.8493 5.28902C17.0072 5.3945 17.1303 5.54444 17.2029 5.71985C17.2756 5.89527 17.2946 6.08829 17.2576 6.27451C17.2205 6.46074 17.1291 6.63179 16.9948 6.76605C16.8606 6.90031 16.6895 6.99174 16.5033 7.02878C16.3171 7.06582 16.124 7.04681 15.9486 6.97415C15.7732 6.90149 15.6233 6.77845 15.5178 6.62058C15.4123 6.4627 15.356 6.2771 15.356 6.08723C15.3556 5.961 15.3802 5.83594 15.4283 5.71923C15.4763 5.60253 15.547 5.49647 15.6362 5.40717C15.7254 5.31787 15.8314 5.24708 15.9481 5.19886C16.0647 5.15065 16.1898 5.12596 16.316 5.12623V5.12723ZM1.92 9.60523C1.41078 9.60523 0.922425 9.80751 0.562355 10.1676C0.202285 10.5277 0 11.016 0 11.5252V20.4832C0 20.9924 0.202285 21.4808 0.562355 21.8409C0.922425 22.2009 1.41078 22.4032 1.92 22.4032C2.1387 22.4008 2.35529 22.3602 2.56 22.2832V9.72523C2.35529 9.64823 2.1387 9.60762 1.92 9.60523ZM3.84 9.60523V23.6822C3.84079 24.1912 4.04333 24.6791 4.40323 25.039C4.76313 25.3989 5.25103 25.6014 5.76 25.6022H19.836C20.345 25.6014 20.8329 25.3989 21.1928 25.039C21.5527 24.6791 21.7552 24.1912 21.756 23.6822V9.60523H3.84ZM23.676 9.60523C23.4573 9.60762 23.2407 9.64823 23.036 9.72523V22.2822C23.3247 22.389 23.635 22.424 23.9402 22.3843C24.2454 22.3446 24.5365 22.2313 24.7882 22.0543C25.04 21.8772 25.2449 21.6416 25.3855 21.3677C25.526 21.0939 25.5979 20.79 25.595 20.4822V11.5252C25.595 11.016 25.3927 10.5277 25.0326 10.1676C24.6726 9.80751 24.1842 9.60523 23.675 9.60523H23.676ZM6.4 26.8812V29.4412C6.4 30.1201 6.66966 30.7711 7.14966 31.2511C7.62966 31.7311 8.28068 32.0007 8.9595 32.0007C9.63832 32.0007 10.2893 31.7311 10.7693 31.2511C11.2493 30.7711 11.519 30.1201 11.519 29.4412V26.8812H6.4ZM14.078 26.8812V29.4412C14.078 30.1201 14.3477 30.7711 14.8277 31.2511C15.3077 31.7311 15.9587 32.0007 16.6375 32.0007C17.3163 32.0007 17.9673 31.7311 18.4473 31.2511C18.9273 30.7711 19.197 30.1201 19.197 29.4412V26.8812H14.078Z" fill="#1C1B19"/>
</svg>
