<svg width="60" height="76" viewBox="0 0 60 76" fill="none" xmlns="http://www.w3.org/2000/svg">
<path fill-rule="evenodd" clip-rule="evenodd" d="M24.341 13.081C23.15 9.61702 22.085 6.12202 21.176 2.56602C24.547 -1.08398 37.565 -0.601984 41.313 2.51002L37.847 10.644C39.715 8.22602 40.342 7.23602 41.447 5.88702C41.9154 6.18829 42.3592 6.52635 42.774 6.89802C43.8273 7.6797 44.5548 8.82282 44.817 10.108C44.87 10.5977 44.8137 11.0931 44.6522 11.5584C44.4906 12.0237 44.228 12.4474 43.883 12.799L35.927 21.945C34.9071 21.7838 33.9032 21.5335 32.927 21.197C33.378 20.152 33.927 18.997 34.375 17.95L31.475 21.03C28.8811 20.389 26.1423 20.7191 23.775 21.958L15.71 12.398C15.2788 11.9318 15.0303 11.3257 15.01 10.691C15.016 8.38402 18.501 6.38602 20.337 5.63102L24.337 13.078L24.341 13.081ZM34.682 30.344L33.109 23.237C39.853 24.474 50.665 38.014 54.156 44.168C56.0378 47.4984 57.5869 51.006 58.781 54.64C61.326 64.005 58.875 72.763 48.581 74.804C42.132 76.084 30.104 76.171 23.323 75.825C16.034 75.454 4.746 75.466 1.8 68.075C-2.957 56.15 5.761 41.942 13.708 33.245C14.7323 32.121 15.8162 31.0528 16.955 30.045C19.844 27.534 22.966 24.559 26.682 23.315L23.082 29.921L28.308 23.098H31.059L34.682 30.347V30.344ZM31.327 36.177V37.433C32.5183 37.5364 33.688 37.8137 34.799 38.256C35.7742 38.6754 36.6393 39.3143 37.327 40.123C37.8613 40.7072 38.3049 41.3682 38.643 42.084C38.9279 42.6601 39.0862 43.2906 39.107 43.933C39.1095 44.235 39.0495 44.5342 38.931 44.8119C38.8124 45.0897 38.6378 45.3399 38.418 45.547C38.1979 45.7673 37.9358 45.941 37.6471 46.0579C37.3585 46.1747 37.0493 46.2322 36.738 46.227C36.1637 46.2495 35.601 46.0606 35.1567 45.6961C34.7123 45.3315 34.4171 44.8167 34.327 44.249C34.1478 43.5109 33.7743 42.8343 33.2454 42.2892C32.7165 41.7441 32.0513 41.3504 31.319 41.149V48.912C32.88 49.333 34.133 49.722 35.054 50.069C35.9725 50.4076 36.8172 50.9199 37.542 51.578C38.3174 52.2522 38.9356 53.0881 39.353 54.027C39.7809 55.0124 39.9966 56.0768 39.986 57.151C39.9978 58.5692 39.6339 59.9652 38.9313 61.1971C38.2287 62.4291 37.2125 63.4531 35.986 64.165C34.5565 64.9857 32.9556 65.4623 31.31 65.557V66.825C31.3377 67.3674 31.2634 67.9101 31.091 68.425C31.0049 68.598 30.8664 68.7393 30.6953 68.8291C30.5243 68.9189 30.3292 68.9524 30.138 68.925C29.9575 68.944 29.7752 68.9165 29.6084 68.8451C29.4416 68.7736 29.2958 68.6607 29.185 68.517C28.9765 68.1264 28.8829 67.6847 28.915 67.243V65.589C27.5775 65.466 26.2703 65.1188 25.048 64.562C24.0131 64.0909 23.0756 63.4302 22.284 62.614C21.5994 61.9101 21.0473 61.0887 20.654 60.189C20.3132 59.4084 20.1343 58.5668 20.128 57.715C20.1303 57.4129 20.1942 57.1144 20.316 56.8379C20.4377 56.5614 20.6147 56.3127 20.836 56.107C21.0644 55.8727 21.3386 55.6879 21.6416 55.5644C21.9446 55.4409 22.2699 55.3811 22.597 55.389C23.1058 55.3725 23.6079 55.5083 24.039 55.779C24.4278 56.0423 24.7153 56.4303 24.854 56.879C25.1074 57.6753 25.4025 58.4577 25.738 59.223C26.0154 59.7906 26.4057 60.2955 26.885 60.707C27.4793 61.1995 28.1774 61.5509 28.927 61.735V53.063C27.4701 52.6879 26.0531 52.1721 24.696 51.523C23.701 50.9638 22.847 50.1846 22.1992 49.2449C21.5514 48.3052 21.1269 47.2299 20.9582 46.101C20.7894 44.9722 20.8809 43.8198 21.2256 42.7317C21.5703 41.6437 22.1591 40.6488 22.947 39.823C24.5942 38.3437 26.7139 37.4987 28.927 37.439V36.22C28.927 35.175 29.327 34.655 30.118 34.655C30.933 34.649 31.334 35.155 31.334 36.177H31.327ZM28.927 48.214V41.07C28.0241 41.298 27.1805 41.7168 26.453 42.298C26.1412 42.594 25.8995 42.9559 25.7455 43.3573C25.5915 43.7587 25.5292 44.1894 25.563 44.618C25.5333 45.0274 25.5924 45.4384 25.7363 45.8228C25.8803 46.2072 26.1057 46.5559 26.397 46.845C27.1462 47.4572 28.0047 47.9217 28.927 48.214ZM31.327 53.75V61.927C32.4474 61.7591 33.4821 61.2291 34.273 60.418C34.9467 59.6992 35.319 58.7492 35.313 57.764C35.3404 57.2964 35.2636 56.8286 35.0881 56.3943C34.9125 55.96 34.6427 55.5702 34.298 55.253C33.4218 54.5534 32.4102 54.0427 31.327 53.753V53.75Z" fill="#1C1B19"/>
</svg>
