<svg width="117" height="71" viewBox="0 0 117 71" fill="none" xmlns="http://www.w3.org/2000/svg">
<path d="M26.589 3.80579C26.6628 3.20026 26.8871 2.62288 27.2416 2.12641C27.596 1.62994 28.0693 1.23023 28.618 0.963795C29.4936 0.596991 30.4708 0.552697 31.376 0.838795C32.3367 1.11141 33.2351 1.5686 34.021 2.18479C35.4372 3.32559 36.5995 4.74953 37.4336 6.36543C38.2678 7.98134 38.7553 9.75361 38.865 11.5688C38.9491 12.9553 38.9301 14.3461 38.808 15.7298C38.723 16.6778 38.599 17.7208 38.429 18.7918H48.477C50.0516 18.839 51.5962 19.2341 53 19.9488C54.1246 20.5099 55.0847 21.3526 55.787 22.3948C56.5121 23.5042 56.8668 24.8151 56.8 26.1388C56.721 27.3411 56.3985 28.5149 55.852 29.5888C56.2094 30.9488 56.3028 32.3647 56.127 33.7598C55.9952 34.8373 55.5045 35.8391 54.734 36.6038C54.8136 38.2138 54.5786 39.8238 54.042 41.3438C53.5463 42.6558 52.7827 43.8501 51.8 44.8508C51.725 45.694 51.5727 46.5285 51.345 47.3438C51.0996 48.2782 50.6972 49.1641 50.155 49.9638C48.449 52.3638 47.084 52.3148 44.922 52.2198H24.21C22.6912 52.2835 21.1794 51.981 19.802 51.3378C18.4419 50.5986 17.2607 49.5697 16.342 48.3238L16.058 47.4898V24.6318L17.058 24.3668C19.589 23.6838 21.57 21.5228 23.115 18.9448C24.5807 16.3296 25.731 13.5499 26.542 10.6638V3.76379L26.589 3.80579ZM89.889 67.1748C89.8155 67.7807 89.5913 68.3585 89.2369 68.8553C88.8824 69.3522 88.409 69.7522 87.86 70.0188C86.9876 70.3926 86.012 70.4496 85.102 70.1798C84.1423 69.8936 83.2473 69.4236 82.467 68.7958C81.0527 67.6541 79.8922 66.2297 79.0598 64.6139C78.2275 62.998 77.7415 61.2262 77.633 59.4118C77.5623 58.0286 77.5947 56.6421 77.73 55.2638C77.815 54.3158 77.939 53.2638 78.109 52.2018H68C66.4349 52.1474 64.901 51.7493 63.507 51.0358C62.3643 50.4789 61.3846 49.6363 60.663 48.5898C59.9683 47.4695 59.6372 46.1617 59.715 44.8458C59.7982 43.647 60.1206 42.4771 60.663 41.4048C60.3059 40.0417 60.2126 38.6229 60.388 37.2248C60.5198 36.1473 61.0105 35.1455 61.781 34.3808C61.7076 32.7868 61.9426 31.1937 62.473 29.6888C62.967 28.3792 63.7289 27.1871 64.71 26.1888C64.7843 25.3432 64.9366 24.5063 65.165 23.6888C65.4031 22.739 65.8041 21.8377 66.35 21.0248C68.056 18.6168 69.421 18.6738 71.583 18.7588H92.262C93.7863 18.6889 95.305 18.988 96.689 19.6308C98.0491 20.3699 99.2303 21.3989 100.149 22.6448L100.433 23.4788V46.3488L99.485 46.6138C96.954 47.2968 94.973 49.4578 93.428 52.0358C91.9524 54.6516 90.791 57.4325 89.968 60.3208V67.2118L89.889 67.1748ZM114.469 48.7278H104.715C104.184 48.7255 103.676 48.5143 103.3 48.14C102.924 47.7657 102.71 47.2584 102.705 46.7278V20.0538C102.707 19.5214 102.92 19.0116 103.296 18.6351C103.673 18.2587 104.183 18.0462 104.715 18.0438H114.469C115.002 18.0438 115.513 18.2556 115.89 18.6325C116.267 19.0095 116.479 19.5207 116.479 20.0538V46.7278C116.476 47.2586 116.264 47.7669 115.888 48.1416C115.512 48.5163 115.003 48.727 114.472 48.7278H114.469ZM86.745 67.5638C86.8815 67.4803 86.9974 67.3671 87.0839 67.2325C87.1705 67.098 87.2256 66.9456 87.245 66.7868V60.1508L87.3 59.7638C88.1943 56.5966 89.4703 53.5499 91.1 50.6908C92.5485 47.9074 94.8831 45.6861 97.735 44.3778V23.9878C97.1172 23.2065 96.346 22.5599 95.469 22.0878C94.4615 21.6327 93.36 21.4246 92.256 21.4808H71.456C70.176 21.4338 69.371 21.3958 68.498 22.6188C68.1114 23.1999 67.826 23.8424 67.654 24.5188C67.4366 25.3246 67.3025 26.1506 67.254 26.9838L66.846 27.8658C66.0002 28.6532 65.3496 29.627 64.946 30.7098C64.4731 32.0987 64.2986 33.5718 64.434 35.0328L64.453 35.7438L63.78 36.1608C63.5432 36.334 63.3456 36.5553 63.2001 36.8102C63.0547 37.0651 62.9647 37.3478 62.936 37.6398C62.806 38.8323 62.922 40.0389 63.277 41.1848L63.177 42.1328C62.6941 42.9842 62.4091 43.9333 62.343 44.9098C62.2945 45.689 62.497 46.4632 62.921 47.1188C63.3787 47.7773 63.9959 48.3088 64.715 48.6638C65.7513 49.1893 66.8906 49.4805 68.052 49.5168H81.252L80.958 51.0908C80.6795 52.5392 80.474 54.0007 80.342 55.4698C80.2293 56.7314 80.212 57.9996 80.29 59.2638C80.3683 60.6999 80.746 62.1038 81.3991 63.3853C82.0521 64.6668 82.966 65.7975 84.082 66.7048C84.5833 67.1126 85.1614 67.4156 85.782 67.5958C86.0891 67.702 86.4229 67.702 86.73 67.5958L86.745 67.5638ZM2.01 22.2528H11.764C12.2936 22.2554 12.8008 22.467 13.1753 22.8415C13.5498 23.216 13.7614 23.7232 13.764 24.2528V50.9088C13.764 51.4402 13.5536 51.9499 13.1788 52.3266C12.804 52.7032 12.2954 52.9162 11.764 52.9188H2.01C1.47691 52.9188 0.965663 52.707 0.588715 52.3301C0.211767 51.9531 0 51.4419 0 50.9088V24.2528C0.00264357 23.7214 0.215577 23.2128 0.592239 22.838C0.968901 22.4632 1.47864 22.2528 2.01 22.2528ZM29.727 3.41779C29.5927 3.50306 29.4789 3.61691 29.3937 3.75122C29.3085 3.88553 29.2539 4.03699 29.234 4.19479V10.8308L29.177 11.2198C28.2836 14.3886 27.0104 17.4377 25.385 20.3008C23.717 23.1008 21.546 25.4958 18.75 26.6008V46.9938C19.3666 47.7762 20.138 48.4231 21.016 48.8938C22.0256 49.3416 23.1259 49.5471 24.229 49.4938H45.029C46.309 49.5508 47.114 49.5788 47.987 48.3558C48.3754 47.7757 48.6609 47.1329 48.831 46.4558C49.0438 45.649 49.1778 44.8235 49.231 43.9908L49.639 43.1088C50.4848 42.3214 51.1354 41.3476 51.539 40.2648C52.0309 38.9124 52.2376 37.4729 52.146 36.0368L52.099 35.2368L52.772 34.8198C53.0073 34.6446 53.2025 34.4212 53.3448 34.1647C53.487 33.9081 53.573 33.6242 53.597 33.3318C53.727 32.1392 53.611 30.9327 53.256 29.7868L53.356 28.8388C53.8353 27.9859 54.1201 27.0376 54.19 26.0618C54.2358 25.292 54.0332 24.5278 53.612 23.8818C53.1561 23.2199 52.5395 22.6848 51.82 22.3268C50.7819 21.8058 49.6437 21.5149 48.483 21.4738H35.225L35.519 19.8908C35.7975 18.4424 36.003 16.9808 36.135 15.5118C36.2492 14.251 36.2683 12.9834 36.192 11.7198C36.1125 10.2841 35.7341 8.88075 35.0811 7.59963C34.4282 6.3185 33.515 5.18778 32.4 4.27979C31.8964 3.8755 31.319 3.57289 30.7 3.38879C30.3929 3.28258 30.0591 3.28258 29.752 3.38879L29.727 3.41779Z" fill="black"/>
</svg>
