<svg width="47" height="46" viewBox="0 0 47 46" fill="none" xmlns="http://www.w3.org/2000/svg">
<path fill-rule="evenodd" clip-rule="evenodd" d="M42.271 0H5.262C4.13058 0.00342897 3.04648 0.454404 2.24645 1.25444C1.44641 2.05448 0.995433 3.13858 0.992004 4.27L0.992004 41.279C0.995433 42.4104 1.44641 43.4945 2.24645 44.2946C3.04648 45.0946 4.13058 45.5456 5.262 45.549H42.271C43.4024 45.5456 44.4865 45.0946 45.2866 44.2946C46.0866 43.4945 46.5376 42.4104 46.541 41.279V4.27C46.5376 3.13858 46.0866 2.05448 45.2866 1.25444C44.4865 0.454404 43.4024 0.00342897 42.271 0V0ZM18.072 37.008H12.38V17.08H18.072V37.008ZM15.225 14.233C14.6619 14.233 14.1114 14.066 13.6432 13.7531C13.175 13.4402 12.8101 12.9955 12.5946 12.4753C12.3792 11.955 12.3228 11.3825 12.4328 10.8302C12.5427 10.2779 12.814 9.77063 13.2122 9.37251C13.6105 8.97439 14.1179 8.70332 14.6702 8.59358C15.2225 8.48384 15.795 8.54037 16.3152 8.756C16.8354 8.97164 17.28 9.3367 17.5927 9.80502C17.9054 10.2733 18.0722 10.8239 18.072 11.387C18.0723 11.7609 17.9988 12.1312 17.8558 12.4767C17.7128 12.8221 17.5031 13.136 17.2387 13.4004C16.9742 13.6647 16.6603 13.8743 16.3147 14.0172C15.9692 14.1601 15.5989 14.2334 15.225 14.233ZM38 37.008H32.308V25.622C32.308 24.8669 32.0081 24.1428 31.4741 23.6089C30.9402 23.075 30.2161 22.775 29.461 22.775C28.7059 22.775 27.9818 23.075 27.4479 23.6089C26.914 24.1428 26.614 24.8669 26.614 25.622V37.008H20.919V17.08H26.613V20.613C27.786 19 29.585 17.08 31.592 17.08C35.133 17.08 37.997 20.266 37.997 24.197V37.008H38Z" fill="white"/>
</svg>
