<svg width="81" height="81" viewBox="0 0 81 81" fill="none" xmlns="http://www.w3.org/2000/svg">
<path fill-rule="evenodd" clip-rule="evenodd" d="M54.04 37.1579C55.458 37.157 56.871 37.3275 58.248 37.6659C58.3279 37.3656 58.3313 37.0501 58.2577 36.7482C58.1842 36.4464 58.0361 36.1677 57.827 35.9379L44.899 23.0119C44.5618 22.6811 44.111 22.4913 43.6387 22.4812C43.1664 22.4712 42.708 22.6417 42.357 22.9579L22.999 42.3199C22.6598 42.6656 22.4698 43.1306 22.4698 43.6149C22.4698 44.0992 22.6598 44.5642 22.999 44.9099L35.881 57.7919C36.1316 58.0432 36.4511 58.2144 36.799 58.2839C36.2761 55.7266 36.3285 53.0851 36.9525 50.5506C37.5765 48.0161 38.7563 45.6521 40.4067 43.6299C42.057 41.6077 44.1365 39.9778 46.4945 38.8585C48.8524 37.7391 51.4299 37.1582 54.04 37.1579ZM61.121 51.9879C61.433 51.9887 61.7321 52.1129 61.9528 52.3334C62.1735 52.554 62.298 52.8529 62.299 53.1649V56.3419C62.2982 56.6543 62.1738 56.9538 61.9528 57.1747C61.7319 57.3956 61.4325 57.5201 61.12 57.5209H46.964C46.6515 57.5204 46.3519 57.396 46.1309 57.175C45.9099 56.954 45.7856 56.6544 45.785 56.3419V53.1649C45.7858 52.8526 45.9104 52.5534 46.1313 52.3328C46.3523 52.1122 46.6518 51.9882 46.964 51.9879H61.121ZM60.673 38.4519C62.2059 39.0759 63.6426 39.9143 64.94 40.9419L69.754 36.1279C69.6223 36.0595 69.5021 35.9707 69.398 35.8649L67.526 33.9929C67.4803 33.9466 67.4376 33.8975 67.398 33.8459C67.2017 33.577 67.1138 33.2442 67.1516 32.9134C67.1894 32.5827 67.3502 32.2783 67.6021 32.0606C67.854 31.843 68.1785 31.7281 68.5112 31.7387C68.8439 31.7493 69.1605 31.8847 69.398 32.1179L71.271 33.9909C71.3164 34.0372 71.3588 34.0863 71.398 34.1379C71.4475 34.2064 71.491 34.279 71.528 34.3549L78.099 27.7789C78.279 27.6001 78.3823 27.3581 78.387 27.1045C78.3916 26.8508 78.2973 26.6052 78.124 26.4199L72.158 20.4539C71.4609 20.7674 70.7262 20.9893 69.972 21.1139C68.4113 21.3684 66.8107 21.1951 65.3407 20.6122C63.8706 20.0294 62.5861 19.0589 61.6238 17.804C60.6615 16.5491 60.0575 15.0568 59.876 13.4858C59.6945 11.9149 59.9423 10.3242 60.593 8.88289L54.63 2.91989C54.4446 2.7392 54.1959 2.63808 53.937 2.63808C53.6781 2.63808 53.4295 2.7392 53.244 2.91989L46.699 9.46189C46.7815 9.51623 46.858 9.57926 46.927 9.64989L48.799 11.5239C48.8444 11.5698 48.8868 11.6186 48.926 11.6699C49.1233 11.9386 49.212 12.2718 49.1745 12.6031C49.137 12.9344 48.976 13.2393 48.7236 13.4571C48.4712 13.6749 48.146 13.7896 47.8128 13.7782C47.4797 13.7669 47.163 13.6304 46.926 13.3959L45.054 11.5239C45.0087 11.4776 44.9663 11.4285 44.927 11.3769L44.87 11.2919L11.262 44.8999C11.3825 44.9662 11.4927 45.0497 11.589 45.1479L13.461 47.0199C13.506 47.0662 13.5484 47.1149 13.588 47.1659C13.7853 47.4346 13.874 47.7678 13.8365 48.0991C13.799 48.4304 13.638 48.7353 13.3856 48.9531C13.1332 49.1709 12.808 49.2856 12.4748 49.2742C12.1417 49.2629 11.825 49.1264 11.588 48.8919L9.71602 47.0219C9.66702 46.9709 9.63102 46.9269 9.58802 46.8749C9.54696 46.8152 9.50891 46.7534 9.47402 46.6899L2.91902 53.2449C2.73997 53.4312 2.63996 53.6795 2.63996 53.9379C2.63996 54.1963 2.73997 54.4446 2.91902 54.6309L8.83002 60.5419C10.4611 59.7358 12.3039 59.4614 14.0991 59.7573C15.8944 60.0531 17.5516 60.9044 18.8378 62.1912C20.124 63.4781 20.9744 65.1358 21.2693 66.9312C21.5643 68.7265 21.2889 70.5692 20.482 72.1999L26.392 78.0999C26.5772 78.281 26.826 78.3825 27.085 78.3825C27.3441 78.3825 27.5928 78.281 27.778 78.0999L34.313 71.5659C34.2205 71.5063 34.1347 71.4369 34.057 71.3589L32.184 69.4869C32.137 69.4359 32.1 69.3919 32.057 69.3399C31.8597 69.0712 31.771 68.7379 31.8085 68.4067C31.846 68.0754 32.007 67.7705 32.2594 67.5527C32.5118 67.3348 32.837 67.2202 33.1702 67.2315C33.5034 67.2429 33.82 67.3794 34.057 67.6139L35.929 69.4869C35.9747 69.5329 36.0174 69.5816 36.057 69.6329L36.131 69.7479L40.231 65.6479C39.0932 64.1938 38.1828 62.5754 37.531 60.8479C36.8991 60.9022 36.263 60.8188 35.6665 60.6033C35.07 60.3878 34.5273 60.0455 34.076 59.5999L21.194 46.7129C20.3786 45.8871 19.9214 44.7734 19.9214 43.6129C19.9214 42.4524 20.3786 41.3386 21.194 40.5129L40.585 21.1309C41.4146 20.3493 42.5151 19.9202 43.6548 19.9338C44.7944 19.9474 45.8843 20.4027 46.695 21.2039L59.658 34.1669C60.1879 34.7293 60.5607 35.4211 60.739 36.173C60.9174 36.9249 60.8949 37.7104 60.674 38.4509L60.673 38.4519ZM66.873 42.7119C70.0129 46.0421 71.7314 50.4648 71.6638 55.0413C71.5962 59.6178 69.7479 63.9878 66.511 67.2238C63.2742 70.4599 58.9038 72.3072 54.3273 72.3736C49.7507 72.4401 45.3285 70.7205 41.999 67.5799L29.626 79.9529L29.542 80.0099C28.862 80.6551 27.9573 81.01 27.02 80.9993C26.0826 80.9887 25.1863 80.6133 24.521 79.9529L17.91 73.3429C17.7002 73.125 17.5704 72.8425 17.5418 72.5413C17.5133 72.2402 17.5878 71.9382 17.753 71.6849C18.5208 70.5178 18.8648 69.1226 18.7275 67.7324C18.5901 66.3422 17.9797 65.0413 16.9984 64.047C16.017 63.0528 14.7242 62.4255 13.3359 62.2701C11.9476 62.1146 10.548 62.4404 9.37102 63.1929C9.12152 63.3787 8.81401 63.4696 8.50359 63.4492C8.19317 63.4289 7.90014 63.2987 7.67702 63.0819L1.04702 56.4549C0.379229 55.7824 0.00313455 54.8739 0.000140089 53.9262C-0.00285438 52.9784 0.367492 52.0676 1.03102 51.3909L51.373 1.04689C52.0485 0.376015 52.962 -0.000488281 53.914 -0.000488281C54.8661 -0.000488281 55.7795 0.376015 56.455 1.04689L63.113 7.69989C63.3139 7.91003 63.4407 8.17996 63.4743 8.46871C63.5078 8.75745 63.4463 9.04927 63.299 9.29989C62.6845 10.3164 62.3797 11.49 62.4221 12.6771C62.4644 13.8641 62.852 15.0131 63.5374 15.9832C64.2228 16.9534 65.1762 17.7026 66.2809 18.1391C67.3856 18.5756 68.5936 18.6805 69.757 18.4409C70.4135 18.3027 71.0431 18.0585 71.621 17.7179C71.877 17.5518 72.1818 17.4776 72.4854 17.5076C72.7891 17.5376 73.0735 17.6699 73.292 17.8829L79.951 24.5419C80.6234 25.2166 81.0009 26.1304 81.0009 27.0829C81.0009 28.0354 80.6234 28.9491 79.951 29.6239L66.869 42.7119H66.873ZM52.548 15.2679C52.3102 15.0368 51.9945 14.9032 51.6631 14.8935C51.3317 14.8837 51.0086 14.9984 50.7576 15.215C50.5066 15.4316 50.3459 15.7344 50.3071 16.0637C50.2683 16.393 50.3542 16.7249 50.548 16.9939C50.591 17.0449 50.627 17.0939 50.675 17.1399L52.548 19.0129C52.785 19.2474 53.1017 19.3839 53.4348 19.3952C53.768 19.4066 54.0932 19.2919 54.3456 19.0741C54.598 18.8563 54.759 18.5514 54.7965 18.2201C54.834 17.8888 54.7453 17.5556 54.548 17.2869C54.5084 17.2356 54.466 17.1865 54.421 17.1399L52.549 15.2679H52.548ZM58.164 20.8839C57.9265 20.6507 57.6099 20.5153 57.2772 20.5047C56.9445 20.4941 56.62 20.609 56.3681 20.8266C56.1162 21.0443 55.9554 21.3487 55.9176 21.6794C55.8798 22.0102 55.9677 22.343 56.164 22.6119C56.2037 22.6628 56.2461 22.7116 56.291 22.7579L58.164 24.6309C58.401 24.8654 58.7177 25.0019 59.0508 25.0132C59.384 25.0246 59.7092 24.9099 59.9616 24.6921C60.214 24.4743 60.375 24.1694 60.4125 23.8381C60.4501 23.5068 60.3613 23.1736 60.164 22.9049C60.1257 22.8525 60.0833 22.8034 60.037 22.7579L58.164 20.8839ZM63.782 26.4999C63.545 26.2654 63.2284 26.1289 62.8952 26.1175C62.562 26.1062 62.2368 26.2209 61.9844 26.4387C61.732 26.6565 61.571 26.9614 61.5335 27.2927C61.496 27.6239 61.5847 27.9572 61.782 28.2259C61.8217 28.2772 61.8641 28.3262 61.909 28.3729L63.781 30.2449C64.0188 30.4759 64.3345 30.6095 64.6659 30.6193C64.9974 30.6291 65.3204 30.5144 65.5714 30.2978C65.8224 30.0811 65.9832 29.7783 66.022 29.4491C66.0608 29.1198 65.9748 28.7879 65.781 28.5189C65.741 28.468 65.6982 28.4193 65.653 28.3729L63.782 26.4999ZM17.205 50.7659C16.969 50.5275 16.6513 50.3876 16.3161 50.3745C15.9808 50.3614 15.6531 50.476 15.3992 50.6951C15.1452 50.9143 14.9839 51.2217 14.9479 51.5552C14.9118 51.8888 15.0037 52.2235 15.205 52.4919C15.2443 52.5432 15.2867 52.5919 15.332 52.6379L17.204 54.5099C17.4406 54.7445 17.7569 54.8812 18.0899 54.8929C18.4229 54.9045 18.748 54.7902 19.0004 54.5728C19.2528 54.3553 19.4139 54.0507 19.4517 53.7197C19.4894 53.3887 19.401 53.0556 19.204 52.7869C19.1653 52.7346 19.1225 52.6854 19.076 52.6399L17.204 50.7669L17.205 50.7659ZM22.823 56.3839C22.586 56.1494 22.2694 56.0129 21.9362 56.0015C21.603 55.9902 21.2778 56.1049 21.0254 56.3227C20.773 56.5405 20.612 56.8454 20.5745 57.1767C20.537 57.5079 20.6257 57.8412 20.823 58.1099C20.8626 58.1612 20.9053 58.21 20.951 58.2559L22.823 60.1289C23.06 60.3634 23.3767 60.4999 23.7098 60.5112C24.043 60.5226 24.3682 60.4079 24.6206 60.1901C24.873 59.9723 25.034 59.6674 25.0715 59.3361C25.109 59.0048 25.0203 58.6716 24.823 58.4029C24.78 58.3509 24.744 58.3029 24.696 58.2559L22.823 56.3839ZM28.439 61.9999C28.202 61.7654 27.8854 61.6289 27.5522 61.6175C27.219 61.6062 26.8938 61.7209 26.6414 61.9387C26.389 62.1565 26.228 62.4614 26.1905 62.7927C26.153 63.1239 26.2417 63.4572 26.439 63.7259C26.4783 63.7772 26.5207 63.8259 26.566 63.8719L28.438 65.7449C28.6753 65.9771 28.9911 66.1118 29.3229 66.1223C29.6548 66.1328 29.9784 66.0183 30.2299 65.8015C30.4814 65.5848 30.6423 65.2815 30.6808 64.9518C30.7194 64.622 30.6327 64.2898 30.438 64.0209C30.3988 63.9686 30.3564 63.9189 30.311 63.8719L28.439 61.9999ZM54.039 39.8049C56.9953 39.8047 59.8852 40.6811 62.3433 42.3234C64.8014 43.9656 66.7174 46.2999 67.8489 49.031C68.9804 51.7621 69.2766 54.7675 68.7 57.6669C68.1235 60.5664 66.7001 63.2298 64.6099 65.3203C62.5196 67.4108 59.8564 68.8346 56.957 69.4115C54.0576 69.9884 51.0523 69.6926 48.321 68.5615C45.5897 67.4304 43.2552 65.5147 41.6126 63.0568C39.97 60.5989 39.0932 57.7091 39.093 54.7529C39.093 52.79 39.4796 50.8464 40.2308 49.0329C40.982 47.2195 42.0829 45.5717 43.4709 44.1838C46.274 41.3807 50.0758 39.8059 54.04 39.8059L54.039 39.8049Z" fill="black"/>
</svg>
