<svg width="61" height="56" viewBox="0 0 61 56" fill="none" xmlns="http://www.w3.org/2000/svg">
<path fill-rule="evenodd" clip-rule="evenodd" d="M54.695 52.107C54.694 53.094 54.3194 54.0441 53.6466 54.7663C52.9738 55.4885 52.0525 55.9293 51.068 56H4.63599C3.60358 55.9188 2.64427 55.4357 1.96432 54.6546C1.28438 53.8735 0.938116 52.8567 0.999987 51.823V10.851C0.996846 9.90875 1.30677 8.99215 1.88109 8.24516C2.45541 7.49817 3.26158 6.9631 4.17299 6.724V16.785H3.30999V52.229C3.3058 52.5301 3.41017 52.8226 3.60399 53.053C3.69125 53.158 3.80032 53.2426 3.92363 53.3012C4.04693 53.3597 4.1815 53.3907 4.31799 53.392H51.536C51.8232 53.3702 52.0903 53.2359 52.279 53.0183C52.4678 52.8007 52.563 52.5174 52.544 52.23V52.108L54.695 52.107ZM12.063 13.315H54.357V33.987H12.063V13.315ZM10.192 0H56.624C57.6591 0.0816715 58.6207 0.567162 59.3009 1.35166C59.9812 2.13615 60.3257 3.15671 60.26 4.193V45.166C60.3257 46.2023 59.9812 47.2229 59.3009 48.0073C58.6207 48.7918 57.6591 49.2773 56.624 49.359H10.192C9.15683 49.2773 8.19532 48.7918 7.51504 48.0073C6.83476 47.2229 6.49028 46.2023 6.55599 45.166V4.193C6.49028 3.15671 6.83476 2.13615 7.51504 1.35166C8.19532 0.567162 9.15683 0.0816715 10.192 0V0ZM58.114 10.133H8.86599V45.605C8.8558 45.8852 8.9555 46.1583 9.14381 46.366C9.33212 46.5738 9.59414 46.6997 9.87399 46.717H57.092C57.3703 46.6975 57.6302 46.5706 57.8168 46.3631C58.0033 46.1557 58.102 45.8838 58.092 45.605V10.133H58.114ZM53.161 3.633C53.6733 3.67144 54.1498 3.91054 54.4869 4.29834C54.8239 4.68613 54.9943 5.19128 54.961 5.704C54.9964 5.96113 54.9763 6.22287 54.9021 6.47159C54.8279 6.72031 54.7012 6.95024 54.5307 7.1459C54.3601 7.34156 54.1496 7.49841 53.9134 7.60588C53.6771 7.71336 53.4205 7.76897 53.161 7.76897C52.9014 7.76897 52.6449 7.71336 52.4086 7.60588C52.1724 7.49841 51.9619 7.34156 51.7913 7.1459C51.6208 6.95024 51.4941 6.72031 51.4199 6.47159C51.3456 6.22287 51.3256 5.96113 51.361 5.704C51.3273 5.19187 51.4967 4.68708 51.8325 4.29892C52.1682 3.91075 52.6433 3.67044 53.155 3.63L53.161 3.633ZM40.994 3.633C41.5063 3.67144 41.9828 3.91054 42.3199 4.29834C42.6569 4.68613 42.8273 5.19128 42.794 5.704C42.8294 5.96113 42.8093 6.22287 42.7351 6.47159C42.6609 6.72031 42.5342 6.95024 42.3637 7.1459C42.1931 7.34156 41.9826 7.49841 41.7464 7.60588C41.5101 7.71336 41.2535 7.76897 40.994 7.76897C40.7344 7.76897 40.4779 7.71336 40.2416 7.60588C40.0054 7.49841 39.7949 7.34156 39.6243 7.1459C39.4538 6.95024 39.3271 6.72031 39.2529 6.47159C39.1786 6.22287 39.1586 5.96113 39.194 5.704C39.1603 5.19187 39.3297 4.68708 39.6655 4.29892C40.0012 3.91075 40.4763 3.67044 40.988 3.63L40.994 3.633ZM47.08 3.633C47.5928 3.67169 48.0696 3.91128 48.4067 4.29967C48.7438 4.68807 48.9139 5.19385 48.88 5.707C48.9154 5.96413 48.8953 6.22587 48.8211 6.47459C48.7469 6.72331 48.6202 6.95324 48.4497 7.1489C48.2791 7.34456 48.0686 7.50141 47.8324 7.60888C47.5961 7.71636 47.3396 7.77197 47.08 7.77197C46.8204 7.77197 46.5639 7.71636 46.3276 7.60888C46.0914 7.50141 45.8809 7.34456 45.7103 7.1489C45.5398 6.95324 45.4131 6.72331 45.3389 6.47459C45.2646 6.22587 45.2446 5.96413 45.28 5.707C45.2461 5.19385 45.4162 4.68807 45.7533 4.29967C46.0904 3.91128 46.5672 3.67169 47.08 3.633ZM35.78 41.333C35.3796 41.243 35.0218 41.0194 34.7654 40.699C34.509 40.3785 34.3693 39.9804 34.3693 39.57C34.3693 39.1596 34.509 38.7615 34.7654 38.441C35.0218 38.1206 35.3796 37.897 35.78 37.807H53.108C53.5084 37.897 53.8662 38.1206 54.1226 38.441C54.379 38.7615 54.5187 39.1596 54.5187 39.57C54.5187 39.9804 54.379 40.3785 54.1226 40.699C53.8662 41.0194 53.5084 41.243 53.108 41.333H35.78ZM13.114 41.333C12.7136 41.243 12.3558 41.0194 12.0994 40.699C11.843 40.3785 11.7033 39.9804 11.7033 39.57C11.7033 39.1596 11.843 38.7615 12.0994 38.441C12.3558 38.1206 12.7136 37.897 13.114 37.807H29.159C29.5594 37.897 29.9172 38.1206 30.1736 38.441C30.43 38.7615 30.5697 39.1596 30.5697 39.57C30.5697 39.9804 30.43 40.3785 30.1736 40.699C29.9172 41.0194 29.5594 41.243 29.159 41.333H13.114Z" fill="#1C1B19"/>
</svg>
